<svg xmlns="http://www.w3.org/2000/svg" width="15.733" height="15.75" viewBox="0 0 15.733 15.75">
<defs>
<style>.a{fill:#09f;}</style>
</defs>
<path class="a" d="M-205.119-241.545a3.715,3.715,0,0,0-2.644-1.1,3.71,3.71,0,0,0-2.512.975.512.512,0,0,0-.114.084.519.519,0,0,0-.07.089l-8.527,8.527a.511.511,0,0,0-.22.334c0,.008,0,.016-.005.025s0,.009,0,.014l-.539,5.133a.515.515,0,0,0,.149.42.516.516,0,0,0,.364.15.527.527,0,0,0,.057,0l4.987-.554a.477.477,0,0,0,.051,0,.514.514,0,0,0,.364-.151l8.663-8.662a3.715,3.715,0,0,0,1.1-2.644A3.715,3.715,0,0,0-205.119-241.545Zm-.729.729a2.69,2.69,0,0,1,.793,1.915,2.688,2.688,0,0,1-.442,1.483l-3.749-3.749a2.688,2.688,0,0,1,1.483-.442A2.69,2.69,0,0,1-205.848-240.815Zm-8.3,12.128-1.542-1.542,7.96-7.96,1.542,1.542Zm4.13-11.79,1.559,1.558-7.96,7.96-1.559-1.559Zm-8.289,9.09,3.023,3.023-3.38.375Z" transform="translate(219.757 242.64)"/>
</svg>