<svg xmlns="http://www.w3.org/2000/svg" width="14.231" height="16" viewBox="0 0 14.231 16">
<defs>
<style>.a{fill:#da4e6f;}</style>
</defs>
<path class="a" d="M-107.513-240.172h-2.775v-.82a1.925,1.925,0,0,0-1.923-1.923h-3.256a1.925,1.925,0,0,0-1.923,1.923v.82h-2.867a.743.743,0,0,0-.743.743.743.743,0,0,0,.743.743h.372l.967,11.091a.744.744,0,0,0,.741.679h8.626a.744.744,0,0,0,.741-.679l.966-11.091h.331a.743.743,0,0,0,.743-.743A.743.743,0,0,0-107.513-240.172Zm-8.39-.82a.436.436,0,0,1,.436-.436h3.256a.436.436,0,0,1,.436.436v.82H-115.9Zm5.67,12.591H-117.5l-.9-10.283h9.056Z" transform="translate(121 242.915)"/>
</svg>